<svg width="304.8mm" height="95.25mm" viewBox="0 0 304.8 95.25" xmlns="http://www.w3.org/2000/svg"><g id="svgGroup" stroke-linecap="round" fill-rule="evenodd" font-size="9pt" stroke="#000" stroke-width="0.25mm" fill="none" style="stroke:#000;stroke-width:0.25mm;fill:none"><path d="M 0 95.25 L 304.8 95.25 L 304.8 0 L 0 0 L 0 95.25 Z M 245.913 40.625 L 258.913 40.625 A 0.5 0.5 0 0 1 259.413 41.125 L 259.413 54.125 A 0.5 0.5 0 0 1 258.913 54.625 L 245.913 54.625 A 0.5 0.5 0 0 1 245.413 54.125 L 245.413 41.125 A 0.5 0.5 0 0 1 245.913 40.625 Z M 22.075 2.525 L 35.075 2.525 A 0.5 0.5 0 0 1 35.575 3.025 L 35.575 16.025 A 0.5 0.5 0 0 1 35.075 16.525 L 22.075 16.525 A 0.5 0.5 0 0 1 21.575 16.025 L 21.575 3.025 A 0.5 0.5 0 0 1 22.075 2.525 Z M 7.788 21.575 L 20.788 21.575 A 0.5 0.5 0 0 1 21.288 22.075 L 21.288 35.075 A 0.5 0.5 0 0 1 20.788 35.575 L 7.788 35.575 A 0.5 0.5 0 0 1 7.288 35.075 L 7.288 22.075 A 0.5 0.5 0 0 1 7.788 21.575 Z M 31.6 21.575 L 44.6 21.575 A 0.5 0.5 0 0 1 45.1 22.075 L 45.1 35.075 A 0.5 0.5 0 0 1 44.6 35.575 L 31.6 35.575 A 0.5 0.5 0 0 1 31.1 35.075 L 31.1 22.075 A 0.5 0.5 0 0 1 31.6 21.575 Z M 50.65 21.575 L 63.65 21.575 A 0.5 0.5 0 0 1 64.15 22.075 L 64.15 35.075 A 0.5 0.5 0 0 1 63.65 35.575 L 50.65 35.575 A 0.5 0.5 0 0 1 50.15 35.075 L 50.15 22.075 A 0.5 0.5 0 0 1 50.65 21.575 Z M 69.7 21.575 L 82.7 21.575 A 0.5 0.5 0 0 1 83.2 22.075 L 83.2 35.075 A 0.5 0.5 0 0 1 82.7 35.575 L 69.7 35.575 A 0.5 0.5 0 0 1 69.2 35.075 L 69.2 22.075 A 0.5 0.5 0 0 1 69.7 21.575 Z M 88.75 21.575 L 101.75 21.575 A 0.5 0.5 0 0 1 102.25 22.075 L 102.25 35.075 A 0.5 0.5 0 0 1 101.75 35.575 L 88.75 35.575 A 0.5 0.5 0 0 1 88.25 35.075 L 88.25 22.075 A 0.5 0.5 0 0 1 88.75 21.575 Z M 107.8 21.575 L 120.8 21.575 A 0.5 0.5 0 0 1 121.3 22.075 L 121.3 35.075 A 0.5 0.5 0 0 1 120.8 35.575 L 107.8 35.575 A 0.5 0.5 0 0 1 107.3 35.075 L 107.3 22.075 A 0.5 0.5 0 0 1 107.8 21.575 Z M 126.85 21.575 L 139.85 21.575 A 0.5 0.5 0 0 1 140.35 22.075 L 140.35 35.075 A 0.5 0.5 0 0 1 139.85 35.575 L 126.85 35.575 A 0.5 0.5 0 0 1 126.35 35.075 L 126.35 22.075 A 0.5 0.5 0 0 1 126.85 21.575 Z M 145.9 21.575 L 158.9 21.575 A 0.5 0.5 0 0 1 159.4 22.075 L 159.4 35.075 A 0.5 0.5 0 0 1 158.9 35.575 L 145.9 35.575 A 0.5 0.5 0 0 1 145.4 35.075 L 145.4 22.075 A 0.5 0.5 0 0 1 145.9 21.575 Z M 164.95 21.575 L 177.95 21.575 A 0.5 0.5 0 0 1 178.45 22.075 L 178.45 35.075 A 0.5 0.5 0 0 1 177.95 35.575 L 164.95 35.575 A 0.5 0.5 0 0 1 164.45 35.075 L 164.45 22.075 A 0.5 0.5 0 0 1 164.95 21.575 Z M 184 21.575 L 197 21.575 A 0.5 0.5 0 0 1 197.5 22.075 L 197.5 35.075 A 0.5 0.5 0 0 1 197 35.575 L 184 35.575 A 0.5 0.5 0 0 1 183.5 35.075 L 183.5 22.075 A 0.5 0.5 0 0 1 184 21.575 Z M 203.05 21.575 L 216.05 21.575 A 0.5 0.5 0 0 1 216.55 22.075 L 216.55 35.075 A 0.5 0.5 0 0 1 216.05 35.575 L 203.05 35.575 A 0.5 0.5 0 0 1 202.55 35.075 L 202.55 22.075 A 0.5 0.5 0 0 1 203.05 21.575 Z M 222.1 21.575 L 235.1 21.575 A 0.5 0.5 0 0 1 235.6 22.075 L 235.6 35.075 A 0.5 0.5 0 0 1 235.1 35.575 L 222.1 35.575 A 0.5 0.5 0 0 1 221.6 35.075 L 221.6 22.075 A 0.5 0.5 0 0 1 222.1 21.575 Z M 241.15 21.575 L 254.15 21.575 A 0.5 0.5 0 0 1 254.65 22.075 L 254.65 35.075 A 0.5 0.5 0 0 1 254.15 35.575 L 241.15 35.575 A 0.5 0.5 0 0 1 240.65 35.075 L 240.65 22.075 A 0.5 0.5 0 0 1 241.15 21.575 Z M 288.775 21.575 L 301.775 21.575 A 0.5 0.5 0 0 1 302.275 22.075 L 302.275 35.075 A 0.5 0.5 0 0 1 301.775 35.575 L 288.775 35.575 A 0.5 0.5 0 0 1 288.275 35.075 L 288.275 22.075 A 0.5 0.5 0 0 1 288.775 21.575 Z M 280.844 31.6 L 280.844 44.6 A 0.5 0.5 0 0 1 280.344 45.1 L 267.344 45.1 A 0.5 0.5 0 0 1 266.844 44.6 L 266.844 31.6 A 0.5 0.5 0 0 1 267.344 31.1 L 280.344 31.1 A 0.5 0.5 0 0 1 280.844 31.6 Z M 10.169 40.625 L 23.169 40.625 A 0.5 0.5 0 0 1 23.669 41.125 L 23.669 54.125 A 0.5 0.5 0 0 1 23.169 54.625 L 10.169 54.625 A 0.5 0.5 0 0 1 9.669 54.125 L 9.669 41.125 A 0.5 0.5 0 0 1 10.169 40.625 Z M 36.363 40.625 L 49.363 40.625 A 0.5 0.5 0 0 1 49.863 41.125 L 49.863 54.125 A 0.5 0.5 0 0 1 49.363 54.625 L 36.363 54.625 A 0.5 0.5 0 0 1 35.863 54.125 L 35.863 41.125 A 0.5 0.5 0 0 1 36.363 40.625 Z M 74.463 40.625 L 87.463 40.625 A 0.5 0.5 0 0 1 87.963 41.125 L 87.963 54.125 A 0.5 0.5 0 0 1 87.463 54.625 L 74.463 54.625 A 0.5 0.5 0 0 1 73.963 54.125 L 73.963 41.125 A 0.5 0.5 0 0 1 74.463 40.625 Z M 93.513 40.625 L 106.513 40.625 A 0.5 0.5 0 0 1 107.013 41.125 L 107.013 54.125 A 0.5 0.5 0 0 1 106.513 54.625 L 93.513 54.625 A 0.5 0.5 0 0 1 93.013 54.125 L 93.013 41.125 A 0.5 0.5 0 0 1 93.513 40.625 Z M 112.563 40.625 L 125.563 40.625 A 0.5 0.5 0 0 1 126.063 41.125 L 126.063 54.125 A 0.5 0.5 0 0 1 125.563 54.625 L 112.563 54.625 A 0.5 0.5 0 0 1 112.063 54.125 L 112.063 41.125 A 0.5 0.5 0 0 1 112.563 40.625 Z M 131.613 40.625 L 144.613 40.625 A 0.5 0.5 0 0 1 145.113 41.125 L 145.113 54.125 A 0.5 0.5 0 0 1 144.613 54.625 L 131.613 54.625 A 0.5 0.5 0 0 1 131.113 54.125 L 131.113 41.125 A 0.5 0.5 0 0 1 131.613 40.625 Z M 150.663 40.625 L 163.663 40.625 A 0.5 0.5 0 0 1 164.163 41.125 L 164.163 54.125 A 0.5 0.5 0 0 1 163.663 54.625 L 150.663 54.625 A 0.5 0.5 0 0 1 150.163 54.125 L 150.163 41.125 A 0.5 0.5 0 0 1 150.663 40.625 Z M 169.713 40.625 L 182.713 40.625 A 0.5 0.5 0 0 1 183.213 41.125 L 183.213 54.125 A 0.5 0.5 0 0 1 182.713 54.625 L 169.713 54.625 A 0.5 0.5 0 0 1 169.213 54.125 L 169.213 41.125 A 0.5 0.5 0 0 1 169.713 40.625 Z M 188.763 40.625 L 201.763 40.625 A 0.5 0.5 0 0 1 202.263 41.125 L 202.263 54.125 A 0.5 0.5 0 0 1 201.763 54.625 L 188.763 54.625 A 0.5 0.5 0 0 1 188.263 54.125 L 188.263 41.125 A 0.5 0.5 0 0 1 188.763 40.625 Z M 207.813 40.625 L 220.813 40.625 A 0.5 0.5 0 0 1 221.313 41.125 L 221.313 54.125 A 0.5 0.5 0 0 1 220.813 54.625 L 207.813 54.625 A 0.5 0.5 0 0 1 207.313 54.125 L 207.313 41.125 A 0.5 0.5 0 0 1 207.813 40.625 Z M 226.863 40.625 L 239.863 40.625 A 0.5 0.5 0 0 1 240.363 41.125 L 240.363 54.125 A 0.5 0.5 0 0 1 239.863 54.625 L 226.863 54.625 A 0.5 0.5 0 0 1 226.363 54.125 L 226.363 41.125 A 0.5 0.5 0 0 1 226.863 40.625 Z M 288.775 40.625 L 301.775 40.625 A 0.5 0.5 0 0 1 302.275 41.125 L 302.275 54.125 A 0.5 0.5 0 0 1 301.775 54.625 L 288.775 54.625 A 0.5 0.5 0 0 1 288.275 54.125 L 288.275 41.125 A 0.5 0.5 0 0 1 288.775 40.625 Z M 5.406 59.675 L 18.406 59.675 A 0.5 0.5 0 0 1 18.906 60.175 L 18.906 73.175 A 0.5 0.5 0 0 1 18.406 73.675 L 5.406 73.675 A 0.5 0.5 0 0 1 4.906 73.175 L 4.906 60.175 A 0.5 0.5 0 0 1 5.406 59.675 Z M 26.838 59.675 L 39.838 59.675 A 0.5 0.5 0 0 1 40.338 60.175 L 40.338 73.175 A 0.5 0.5 0 0 1 39.838 73.675 L 26.838 73.675 A 0.5 0.5 0 0 1 26.338 73.175 L 26.338 60.175 A 0.5 0.5 0 0 1 26.838 59.675 Z M 45.888 59.675 L 58.888 59.675 A 0.5 0.5 0 0 1 59.388 60.175 L 59.388 73.175 A 0.5 0.5 0 0 1 58.888 73.675 L 45.888 73.675 A 0.5 0.5 0 0 1 45.388 73.175 L 45.388 60.175 A 0.5 0.5 0 0 1 45.888 59.675 Z M 64.938 59.675 L 77.938 59.675 A 0.5 0.5 0 0 1 78.438 60.175 L 78.438 73.175 A 0.5 0.5 0 0 1 77.938 73.675 L 64.938 73.675 A 0.5 0.5 0 0 1 64.438 73.175 L 64.438 60.175 A 0.5 0.5 0 0 1 64.938 59.675 Z M 83.988 59.675 L 96.988 59.675 A 0.5 0.5 0 0 1 97.488 60.175 L 97.488 73.175 A 0.5 0.5 0 0 1 96.988 73.675 L 83.988 73.675 A 0.5 0.5 0 0 1 83.488 73.175 L 83.488 60.175 A 0.5 0.5 0 0 1 83.988 59.675 Z M 103.038 59.675 L 116.038 59.675 A 0.5 0.5 0 0 1 116.538 60.175 L 116.538 73.175 A 0.5 0.5 0 0 1 116.038 73.675 L 103.038 73.675 A 0.5 0.5 0 0 1 102.538 73.175 L 102.538 60.175 A 0.5 0.5 0 0 1 103.038 59.675 Z M 122.088 59.675 L 135.088 59.675 A 0.5 0.5 0 0 1 135.588 60.175 L 135.588 73.175 A 0.5 0.5 0 0 1 135.088 73.675 L 122.088 73.675 A 0.5 0.5 0 0 1 121.588 73.175 L 121.588 60.175 A 0.5 0.5 0 0 1 122.088 59.675 Z M 141.138 59.675 L 154.138 59.675 A 0.5 0.5 0 0 1 154.638 60.175 L 154.638 73.175 A 0.5 0.5 0 0 1 154.138 73.675 L 141.138 73.675 A 0.5 0.5 0 0 1 140.638 73.175 L 140.638 60.175 A 0.5 0.5 0 0 1 141.138 59.675 Z M 160.188 59.675 L 173.188 59.675 A 0.5 0.5 0 0 1 173.688 60.175 L 173.688 73.175 A 0.5 0.5 0 0 1 173.188 73.675 L 160.188 73.675 A 0.5 0.5 0 0 1 159.688 73.175 L 159.688 60.175 A 0.5 0.5 0 0 1 160.188 59.675 Z M 179.238 59.675 L 192.238 59.675 A 0.5 0.5 0 0 1 192.738 60.175 L 192.738 73.175 A 0.5 0.5 0 0 1 192.238 73.675 L 179.238 73.675 A 0.5 0.5 0 0 1 178.738 73.175 L 178.738 60.175 A 0.5 0.5 0 0 1 179.238 59.675 Z M 198.288 59.675 L 211.288 59.675 A 0.5 0.5 0 0 1 211.788 60.175 L 211.788 73.175 A 0.5 0.5 0 0 1 211.288 73.675 L 198.288 73.675 A 0.5 0.5 0 0 1 197.788 73.175 L 197.788 60.175 A 0.5 0.5 0 0 1 198.288 59.675 Z M 217.338 59.675 L 230.338 59.675 A 0.5 0.5 0 0 1 230.838 60.175 L 230.838 73.175 A 0.5 0.5 0 0 1 230.338 73.675 L 217.338 73.675 A 0.5 0.5 0 0 1 216.838 73.175 L 216.838 60.175 A 0.5 0.5 0 0 1 217.338 59.675 Z M 243.531 59.675 L 256.531 59.675 A 0.5 0.5 0 0 1 257.031 60.175 L 257.031 73.175 A 0.5 0.5 0 0 1 256.531 73.675 L 243.531 73.675 A 0.5 0.5 0 0 1 243.031 73.175 L 243.031 60.175 A 0.5 0.5 0 0 1 243.531 59.675 Z M 269.725 59.675 L 282.725 59.675 A 0.5 0.5 0 0 1 283.225 60.175 L 283.225 73.175 A 0.5 0.5 0 0 1 282.725 73.675 L 269.725 73.675 A 0.5 0.5 0 0 1 269.225 73.175 L 269.225 60.175 A 0.5 0.5 0 0 1 269.725 59.675 Z M 288.775 59.675 L 301.775 59.675 A 0.5 0.5 0 0 1 302.275 60.175 L 302.275 73.175 A 0.5 0.5 0 0 1 301.775 73.675 L 288.775 73.675 A 0.5 0.5 0 0 1 288.275 73.175 L 288.275 60.175 A 0.5 0.5 0 0 1 288.775 59.675 Z M 5.406 78.725 L 18.406 78.725 A 0.5 0.5 0 0 1 18.906 79.225 L 18.906 92.225 A 0.5 0.5 0 0 1 18.406 92.725 L 5.406 92.725 A 0.5 0.5 0 0 1 4.906 92.225 L 4.906 79.225 A 0.5 0.5 0 0 1 5.406 78.725 Z M 29.219 78.725 L 42.219 78.725 A 0.5 0.5 0 0 1 42.719 79.225 L 42.719 92.225 A 0.5 0.5 0 0 1 42.219 92.725 L 29.219 92.725 A 0.5 0.5 0 0 1 28.719 92.225 L 28.719 79.225 A 0.5 0.5 0 0 1 29.219 78.725 Z M 53.031 78.725 L 66.031 78.725 A 0.5 0.5 0 0 1 66.531 79.225 L 66.531 92.225 A 0.5 0.5 0 0 1 66.031 92.725 L 53.031 92.725 A 0.5 0.5 0 0 1 52.531 92.225 L 52.531 79.225 A 0.5 0.5 0 0 1 53.031 78.725 Z M 124.469 78.725 L 137.469 78.725 A 0.5 0.5 0 0 1 137.969 79.225 L 137.969 92.225 A 0.5 0.5 0 0 1 137.469 92.725 L 124.469 92.725 A 0.5 0.5 0 0 1 123.969 92.225 L 123.969 79.225 A 0.5 0.5 0 0 1 124.469 78.725 Z M 193.525 78.725 L 206.525 78.725 A 0.5 0.5 0 0 1 207.025 79.225 L 207.025 92.225 A 0.5 0.5 0 0 1 206.525 92.725 L 193.525 92.725 A 0.5 0.5 0 0 1 193.025 92.225 L 193.025 79.225 A 0.5 0.5 0 0 1 193.525 78.725 Z M 212.575 78.725 L 225.575 78.725 A 0.5 0.5 0 0 1 226.075 79.225 L 226.075 92.225 A 0.5 0.5 0 0 1 225.575 92.725 L 212.575 92.725 A 0.5 0.5 0 0 1 212.075 92.225 L 212.075 79.225 A 0.5 0.5 0 0 1 212.575 78.725 Z M 231.625 78.725 L 244.625 78.725 A 0.5 0.5 0 0 1 245.125 79.225 L 245.125 92.225 A 0.5 0.5 0 0 1 244.625 92.725 L 231.625 92.725 A 0.5 0.5 0 0 1 231.125 92.225 L 231.125 79.225 A 0.5 0.5 0 0 1 231.625 78.725 Z M 250.675 78.725 L 263.675 78.725 A 0.5 0.5 0 0 1 264.175 79.225 L 264.175 92.225 A 0.5 0.5 0 0 1 263.675 92.725 L 250.675 92.725 A 0.5 0.5 0 0 1 250.175 92.225 L 250.175 79.225 A 0.5 0.5 0 0 1 250.675 78.725 Z M 269.725 78.725 L 282.725 78.725 A 0.5 0.5 0 0 1 283.225 79.225 L 283.225 92.225 A 0.5 0.5 0 0 1 282.725 92.725 L 269.725 92.725 A 0.5 0.5 0 0 1 269.225 92.225 L 269.225 79.225 A 0.5 0.5 0 0 1 269.725 78.725 Z M 288.775 78.725 L 301.775 78.725 A 0.5 0.5 0 0 1 302.275 79.225 L 302.275 92.225 A 0.5 0.5 0 0 1 301.775 92.725 L 288.775 92.725 A 0.5 0.5 0 0 1 288.275 92.225 L 288.275 79.225 A 0.5 0.5 0 0 1 288.775 78.725 Z M 3.025 2.525 L 16.025 2.525 A 0.5 0.5 0 0 1 16.525 3.025 L 16.525 16.025 A 0.5 0.5 0 0 1 16.025 16.525 L 3.025 16.525 A 0.5 0.5 0 0 1 2.525 16.025 L 2.525 3.025 A 0.5 0.5 0 0 1 3.025 2.525 Z M 41.125 2.525 L 54.125 2.525 A 0.5 0.5 0 0 1 54.625 3.025 L 54.625 16.025 A 0.5 0.5 0 0 1 54.125 16.525 L 41.125 16.525 A 0.5 0.5 0 0 1 40.625 16.025 L 40.625 3.025 A 0.5 0.5 0 0 1 41.125 2.525 Z M 60.175 2.525 L 73.175 2.525 A 0.5 0.5 0 0 1 73.675 3.025 L 73.675 16.025 A 0.5 0.5 0 0 1 73.175 16.525 L 60.175 16.525 A 0.5 0.5 0 0 1 59.675 16.025 L 59.675 3.025 A 0.5 0.5 0 0 1 60.175 2.525 Z M 79.225 2.525 L 92.225 2.525 A 0.5 0.5 0 0 1 92.725 3.025 L 92.725 16.025 A 0.5 0.5 0 0 1 92.225 16.525 L 79.225 16.525 A 0.5 0.5 0 0 1 78.725 16.025 L 78.725 3.025 A 0.5 0.5 0 0 1 79.225 2.525 Z M 98.275 2.525 L 111.275 2.525 A 0.5 0.5 0 0 1 111.775 3.025 L 111.775 16.025 A 0.5 0.5 0 0 1 111.275 16.525 L 98.275 16.525 A 0.5 0.5 0 0 1 97.775 16.025 L 97.775 3.025 A 0.5 0.5 0 0 1 98.275 2.525 Z M 136.375 2.525 L 149.375 2.525 A 0.5 0.5 0 0 1 149.875 3.025 L 149.875 16.025 A 0.5 0.5 0 0 1 149.375 16.525 L 136.375 16.525 A 0.5 0.5 0 0 1 135.875 16.025 L 135.875 3.025 A 0.5 0.5 0 0 1 136.375 2.525 Z M 155.425 2.525 L 168.425 2.525 A 0.5 0.5 0 0 1 168.925 3.025 L 168.925 16.025 A 0.5 0.5 0 0 1 168.425 16.525 L 155.425 16.525 A 0.5 0.5 0 0 1 154.925 16.025 L 154.925 3.025 A 0.5 0.5 0 0 1 155.425 2.525 Z M 174.475 2.525 L 187.475 2.525 A 0.5 0.5 0 0 1 187.975 3.025 L 187.975 16.025 A 0.5 0.5 0 0 1 187.475 16.525 L 174.475 16.525 A 0.5 0.5 0 0 1 173.975 16.025 L 173.975 3.025 A 0.5 0.5 0 0 1 174.475 2.525 Z M 193.525 2.525 L 206.525 2.525 A 0.5 0.5 0 0 1 207.025 3.025 L 207.025 16.025 A 0.5 0.5 0 0 1 206.525 16.525 L 193.525 16.525 A 0.5 0.5 0 0 1 193.025 16.025 L 193.025 3.025 A 0.5 0.5 0 0 1 193.525 2.525 Z M 212.575 2.525 L 225.575 2.525 A 0.5 0.5 0 0 1 226.075 3.025 L 226.075 16.025 A 0.5 0.5 0 0 1 225.575 16.525 L 212.575 16.525 A 0.5 0.5 0 0 1 212.075 16.025 L 212.075 3.025 A 0.5 0.5 0 0 1 212.575 2.525 Z M 231.625 2.525 L 244.625 2.525 A 0.5 0.5 0 0 1 245.125 3.025 L 245.125 16.025 A 0.5 0.5 0 0 1 244.625 16.525 L 231.625 16.525 A 0.5 0.5 0 0 1 231.125 16.025 L 231.125 3.025 A 0.5 0.5 0 0 1 231.625 2.525 Z M 260.2 2.525 L 273.2 2.525 A 0.5 0.5 0 0 1 273.7 3.025 L 273.7 16.025 A 0.5 0.5 0 0 1 273.2 16.525 L 260.2 16.525 A 0.5 0.5 0 0 1 259.7 16.025 L 259.7 3.025 A 0.5 0.5 0 0 1 260.2 2.525 Z M 288.775 2.525 L 301.775 2.525 A 0.5 0.5 0 0 1 302.275 3.025 L 302.275 16.025 A 0.5 0.5 0 0 1 301.775 16.525 L 288.775 16.525 A 0.5 0.5 0 0 1 288.275 16.025 L 288.275 3.025 A 0.5 0.5 0 0 1 288.775 2.525 Z M 55.413 40.625 L 68.413 40.625 A 0.5 0.5 0 0 1 68.913 41.125 L 68.913 54.125 A 0.5 0.5 0 0 1 68.413 54.625 L 55.413 54.625 A 0.5 0.5 0 0 1 54.913 54.125 L 54.913 41.125 A 0.5 0.5 0 0 1 55.413 40.625 Z M 117.325 2.525 L 130.325 2.525 A 0.5 0.5 0 0 1 130.825 3.025 L 130.825 16.025 A 0.5 0.5 0 0 1 130.325 16.525 L 117.325 16.525 A 0.5 0.5 0 0 1 116.825 16.025 L 116.825 3.025 A 0.5 0.5 0 0 1 117.325 2.525 Z M 279.844 23.162 L 279.844 29.162 A 0.5 0.5 0 0 1 279.344 29.662 L 265.344 29.662 A 0.5 0.5 0 0 1 264.844 29.162 L 264.844 23.162 A 0.5 0.5 0 0 1 265.344 22.662 L 279.344 22.662 A 0.5 0.5 0 0 1 279.844 23.162 Z M 279.844 47.038 L 279.844 53.038 A 0.5 0.5 0 0 1 279.344 53.538 L 265.344 53.538 A 0.5 0.5 0 0 1 264.844 53.038 L 264.844 47.038 A 0.5 0.5 0 0 1 265.344 46.538 L 279.344 46.538 A 0.5 0.5 0 0 1 279.844 47.038 Z M 77.969 79.725 L 83.969 79.725 A 0.5 0.5 0 0 1 84.469 80.225 L 84.469 94.225 A 0.5 0.5 0 0 1 83.969 94.725 L 77.969 94.725 A 0.5 0.5 0 0 1 77.469 94.225 L 77.469 80.225 A 0.5 0.5 0 0 1 77.969 79.725 Z M 177.969 79.725 L 183.969 79.725 A 0.5 0.5 0 0 1 184.469 80.225 L 184.469 94.225 A 0.5 0.5 0 0 1 183.969 94.725 L 177.969 94.725 A 0.5 0.5 0 0 1 177.469 94.225 L 177.469 80.225 A 0.5 0.5 0 0 1 177.969 79.725 Z M 251.762 3.525 L 257.762 3.525 A 0.5 0.5 0 0 1 258.262 4.025 L 258.262 18.025 A 0.5 0.5 0 0 1 257.762 18.525 L 251.762 18.525 A 0.5 0.5 0 0 1 251.262 18.025 L 251.262 4.025 A 0.5 0.5 0 0 1 251.762 3.525 Z M 275.638 3.525 L 281.638 3.525 A 0.5 0.5 0 0 1 282.138 4.025 L 282.138 18.025 A 0.5 0.5 0 0 1 281.638 18.525 L 275.638 18.525 A 0.5 0.5 0 0 1 275.138 18.025 L 275.138 4.025 A 0.5 0.5 0 0 1 275.638 3.525 Z" vector-effect="non-scaling-stroke"/></g></svg>